<svg width="100" height="125" viewBox="0 0 100 125" fill="none" xmlns="http://www.w3.org/2000/svg">
<path d="M60 52.7V38.6C60 38 60.3 37.5 60.8 37.2C62.2 36.3 63 34.8 63 33.1V18.6C62.9 12.3 57.8 7.2 51.5 7.2H48.4C42 7.2 36.9 12.3 36.9 18.6V33.2C36.9 34.8 37.7 36.3 39.1 37.3C39.6 37.6 39.9 38.1 39.9 38.7V52.8C39.9 53.7 39.4 54.5 38.6 54.9C36.8 55.8 27.1 60.7 18.2 68C17 69 16.3 70.5 16.3 72.1V82.1C16.3 83 15.5 83.8 14.6 83.8C13.7 83.8 12.9 83 12.9 82.1V72.1C12.9 69.5 14.1 67 16.1 65.3C24.6 58.3 33.7 53.5 36.6 52.1V39.5C34.7 37.9 33.7 35.6 33.7 33.2V18.6C33.7 10.4 40.4 3.8 48.5 3.8H51.6C59.8 3.8 66.4 10.5 66.4 18.6V33.2C66.4 35.7 65.3 38 63.5 39.5V52.1C66.4 53.5 75.5 58.4 84 65.3C86 67 87.2 69.4 87.2 72.1V82.1C87.2 83 86.4 83.8 85.5 83.8C84.6 83.8 83.8 83 83.8 82.1V72.1C83.8 70.5 83.1 69 81.9 68C73 60.7 63.3 55.8 61.5 54.9C60.5 54.4 60 53.6 60 52.7ZM49.9 67.7C48.9 67.7 48.2 68.4 48.2 69.4V80.3H37.3C36.3 80.3 35.6 81 35.6 82C35.6 83 36.3 83.7 37.3 83.7H48.2V94.6C48.2 95.6 48.9 96.3 49.9 96.3C50.3 96.3 50.8 96.1 51.1 95.8C51.4 95.5 51.6 95 51.6 94.6V83.7H62.5C62.9 83.7 63.4 83.5 63.7 83.2C64 82.9 64.2 82.4 64.2 82C64.2 81 63.5 80.3 62.5 80.3H51.6V69.4C51.6 68.5 50.8 67.7 49.9 67.7Z" fill="#224208"/>
</svg>
