<svg width="48" height="60" viewBox="0 0 48 60" fill="none" xmlns="http://www.w3.org/2000/svg">
<path fill-rule="evenodd" clip-rule="evenodd" d="M32.4706 32.6975H26.8166V30.6975H32.4706V25.0435H34.4706V30.6975H40.1246V32.6975H34.4706V38.3515H32.4706V32.6975ZM34.9316 17.0566V19.8375H32.9316V11H11.706C10.765 11 10 11.766 10 12.707V31.596L11.22 30.945C11.781 30.646 12.451 30.646 13.011 30.946L15.278 32.153L17.455 30.945C18.015 30.647 18.685 30.647 19.244 30.945L21.51 32.153L22.361 33.917C21.8 34.217 21.13 34.217 20.57 33.918L18.303 32.71L16.127 33.918C15.846 34.067 15.54 34.142 15.232 34.142C14.924 34.142 14.617 34.067 14.336 33.917L12.07 32.71L10.796 33.437C10.201 33.755 9.5 33.737 8.923 33.39C8.345 33.043 8 32.433 8 31.759V12.707C8 10.663 9.662 9 11.706 9H33.931V10.0005H33.9312V9.0006C35.1202 9.0006 36.1602 9.4356 36.9362 10.2586C38.8162 12.2526 38.6202 15.9586 38.6112 16.1156L38.5562 17.0566H34.9316ZM34.9316 15.0566V11.2174C35.1329 11.3183 35.3144 11.4547 35.4782 11.6276C36.2632 12.4586 36.5332 13.9776 36.6032 15.0566H34.9316ZM14.0696 17.3845H28.8606V15.3845H14.0696V17.3845ZM14.0696 21.8375H28.8606V19.8375H14.0696V21.8375ZM14.0696 26.2895H24.5036V24.2895H14.0696V26.2895Z" fill="#224208"/>
</svg>
