<svg width="64" height="80" viewBox="0 0 64 80" fill="none" xmlns="http://www.w3.org/2000/svg">
<path d="M7 62H49C50.3256 61.9984 51.5964 61.4711 52.5338 60.5338C53.4711 59.5964 53.9984 58.3256 54 57V52.656L54.749 53.405C54.9365 53.5925 55.1908 53.6978 55.456 53.6978C55.7212 53.6978 55.9755 53.5925 56.163 53.405L60.405 49.163C60.5925 48.9755 60.6978 48.7212 60.6978 48.456C60.6978 48.1908 60.5925 47.9365 60.405 47.749L54 41.343V33.6L55.993 32.332C56.1524 32.2305 56.2797 32.0859 56.3602 31.9149C56.4408 31.744 56.4713 31.5538 56.4481 31.3662C56.425 31.1787 56.3492 31.0016 56.2296 30.8553C56.1099 30.7091 55.9512 30.5998 55.772 30.54L54 29.946V3C54 2.73478 53.8946 2.48043 53.7071 2.29289C53.5196 2.10536 53.2652 2 53 2H11C10.7348 2 10.4804 2.10536 10.2929 2.29289C10.1054 2.48043 10 2.73478 10 3V52H3C2.73478 52 2.48043 52.1054 2.29289 52.2929C2.10536 52.4804 2 52.7348 2 53V57C2.00159 58.3256 2.52888 59.5964 3.46622 60.5338C4.40356 61.4711 5.6744 61.9984 7 62V62ZM55.456 51.284L44.142 39.971C44.0361 39.8651 43.9078 39.7843 43.7665 39.7345C43.6252 39.6848 43.4746 39.6675 43.3257 39.6838C43.1768 39.7001 43.0335 39.7497 42.9063 39.8288C42.7792 39.908 42.6714 40.0146 42.591 40.141L38.77 46.146L31.581 24.581L53.146 31.77L47.141 35.591C47.0146 35.6714 46.908 35.7792 46.8288 35.9063C46.7497 36.0335 46.7001 36.1768 46.6838 36.3257C46.6675 36.4746 46.6848 36.6252 46.7345 36.7665C46.7843 36.9078 46.8651 37.0361 46.971 37.142L58.284 48.456L55.456 51.284ZM52 39.343L49.266 36.609L52 34.87V39.343ZM12 4H52V29.279L36.163 24H46V22H22V24H29.279L31.279 30H22V32H31.946L33.946 38H22V40H34.612L37.537 48.772C37.5968 48.9512 37.7061 49.1099 37.8523 49.2296C37.9986 49.3492 38.1757 49.425 38.3632 49.4481C38.5508 49.4713 38.741 49.4408 38.9119 49.3602C39.0829 49.2797 39.2275 49.1524 39.329 48.993L43.609 42.266L52 50.656V57C52 57.7956 51.6839 58.5587 51.1213 59.1213C50.5587 59.6839 49.7956 60 49 60C48.2044 60 47.4413 59.6839 46.8787 59.1213C46.3161 58.5587 46 57.7956 46 57V53C46 52.7348 45.8946 52.4804 45.7071 52.2929C45.5196 52.1054 45.2652 52 45 52H12V4ZM4 54H44V57C44.0037 58.0855 44.3642 59.1396 45.026 60H7C6.20435 60 5.44129 59.6839 4.87868 59.1213C4.31607 58.5587 4 57.7956 4 57V54Z" fill="#224208"/>
<path d="M35 46H22V48H35V46Z" fill="#224208"/>
<path d="M42 6H22V8H42V6Z" fill="#224208"/>
<path d="M19 12H15C14.7348 12 14.4804 12.1054 14.2929 12.2929C14.1054 12.4804 14 12.7348 14 13V17C14 17.2652 14.1054 17.5196 14.2929 17.7071C14.4804 17.8946 14.7348 18 15 18H19C19.2652 18 19.5196 17.8946 19.7071 17.7071C19.8946 17.5196 20 17.2652 20 17V13C20 12.7348 19.8946 12.4804 19.7071 12.2929C19.5196 12.1054 19.2652 12 19 12ZM18 16H16V14H18V16Z" fill="#224208"/>
<path d="M19 20H15C14.7348 20 14.4804 20.1054 14.2929 20.2929C14.1054 20.4804 14 20.7348 14 21V25C14 25.2652 14.1054 25.5196 14.2929 25.7071C14.4804 25.8946 14.7348 26 15 26H19C19.2652 26 19.5196 25.8946 19.7071 25.7071C19.8946 25.5196 20 25.2652 20 25V21C20 20.7348 19.8946 20.4804 19.7071 20.2929C19.5196 20.1054 19.2652 20 19 20ZM18 24H16V22H18V24Z" fill="#224208"/>
<path d="M19 28H15C14.7348 28 14.4804 28.1054 14.2929 28.2929C14.1054 28.4804 14 28.7348 14 29V33C14 33.2652 14.1054 33.5196 14.2929 33.7071C14.4804 33.8946 14.7348 34 15 34H19C19.2652 34 19.5196 33.8946 19.7071 33.7071C19.8946 33.5196 20 33.2652 20 33V29C20 28.7348 19.8946 28.4804 19.7071 28.2929C19.5196 28.1054 19.2652 28 19 28ZM18 32H16V30H18V32Z" fill="#224208"/>
<path d="M19 36H15C14.7348 36 14.4804 36.1054 14.2929 36.2929C14.1054 36.4804 14 36.7348 14 37V41C14 41.2652 14.1054 41.5196 14.2929 41.7071C14.4804 41.8946 14.7348 42 15 42H19C19.2652 42 19.5196 41.8946 19.7071 41.7071C19.8946 41.5196 20 41.2652 20 41V37C20 36.7348 19.8946 36.4804 19.7071 36.2929C19.5196 36.1054 19.2652 36 19 36ZM18 40H16V38H18V40Z" fill="#224208"/>
<path d="M19 44H15C14.7348 44 14.4804 44.1054 14.2929 44.2929C14.1054 44.4804 14 44.7348 14 45V49C14 49.2652 14.1054 49.5196 14.2929 49.7071C14.4804 49.8946 14.7348 50 15 50H19C19.2652 50 19.5196 49.8946 19.7071 49.7071C19.8946 49.5196 20 49.2652 20 49V45C20 44.7348 19.8946 44.4804 19.7071 44.2929C19.5196 44.1054 19.2652 44 19 44ZM18 48H16V46H18V48Z" fill="#224208"/>
<path d="M43 14H22V16H43V14Z" fill="#224208"/>
<path d="M50 22H48V24H50V22Z" fill="#224208"/>
<path d="M50 14H45V16H50V14Z" fill="#224208"/>
<path d="M62 18H56V20H62V18Z" fill="#224208"/>
<path d="M60.3752 10.2198L55.3749 14.2193L56.6242 15.7811L61.6244 11.7816L60.3752 10.2198Z" fill="#224208"/>
<path d="M56.7067 22.293L55.2925 23.7073L60.2925 28.7072L61.7067 27.293L56.7067 22.293Z" fill="#224208"/>
</svg>
