<svg width="90" height="113" viewBox="0 0 90 113" fill="none" xmlns="http://www.w3.org/2000/svg">
<path d="M84 79.7H67.7C66.6 79.7 65.8 78.8 65.8 77.8C65.8 76.8 66.7 75.9 67.7 75.9H82C81.9 70.7 81.6 65.1 81.3 64.1C80.5 62.7 77.9 61.5 73.1 59.5C68 57.4 65.1 55.1 65.1 49.8C65.1 48.1 65.8 47.2 66.2 46.6C66.6 46.1 67 45.5 67.3 43.6C67.6 42 68.6 41.4 69 41.2C69 41.2 69.1 42 69.2 39.7C69.2 39.5 69.2 39.4 69.1 39.3C68.6 38.9 68.3 38.2 68.4 37.5C68.4 37.5 68.8 35.2 68.9 33.4C69 32.4 68.6 30.5 67.3 29.1C66.2 27.9 64.6 27.3 62.5 27.3C60.4 27.3 58.8 27.9 57.7 29.1C56.4 30.5 56.1 32.4 56.2 33.4C56.3 35.2 56.7 37.5 56.7 37.5C56.8 38.2 56.5 38.9 56 39.3C56 39.4 55.9 39.5 55.9 39.8C56 40.9 56.2 41.2 56.2 41.2C56.6 41.4 57.6 41.9 57.9 43.5C58.2 45.4 58.6 45.9 59 46.5C59.5 47.1 60.1 48 60.1 49.7C60.1 53 59.5 53.9 56.9 55.8C56 56.4 54.8 56.2 54.2 55.3C53.6 54.4 53.8 53.2 54.7 52.6C56.3 51.5 56.3 51.5 56.3 49.7C56.3 49.3 56.3 49.3 56 48.9C55.4 48.2 54.6 47.1 54.1 44.4C52.8 43.6 52.3 42.3 52.1 39.9C52.1 38.7 52.4 37.8 52.7 37.2C52.6 36.3 52.4 34.9 52.3 33.7C52.1 31.8 52.7 28.8 54.9 26.4C56.2 25 58.6 23.3 62.6 23.3C66.6 23.3 69 25 70.3 26.3C72.4 28.6 73 31.7 72.9 33.6C72.8 34.8 72.6 36.2 72.5 37.1C72.9 37.7 73.1 38.5 73.1 39.7C72.9 42.2 72.4 43.5 71.1 44.3C70.6 47 69.8 48 69.2 48.8C68.9 49.2 68.9 49.2 68.9 49.7C68.9 52.3 69.4 53.7 74.5 55.8C80.3 58.2 83.1 59.7 84.6 62.2C84.9 62.6 85.7 64 85.8 77.7C85.8 78.2 85.6 78.7 85.2 79.1C85.1 79.5 84.6 79.7 84 79.7ZM54.7 79.7H7.8C6.7 79.7 5.9 78.8 5.9 77.8V65.1C5.9 60.7 10.2 58.9 12.6 58C20.2 54.8 23.5 52.8 23.5 49.1C23.5 48.3 23.4 48.2 22.9 47.6C22.1 46.6 21.1 45.2 20.5 41.6C19.1 40.8 18.1 39.6 17.9 36C17.9 34.4 18.3 33.3 18.8 32.6C18.6 31.4 18.3 29.4 18.2 27.7C18 25.8 18.5 21.7 21.4 18.5C23.7 16 27.1 14.6 31.2 14.6C35.3 14.6 38.6 15.9 41 18.5C43.9 21.6 44.4 25.8 44.2 27.7C44.1 29.4 43.8 31.4 43.6 32.6C44.1 33.3 44.5 34.3 44.5 35.9C44.3 39.6 43.3 40.9 41.9 41.7C41.4 45 40.5 46.4 39.5 47.7C39 48.3 38.9 48.5 38.9 49.2C38.9 53.2 40.1 55.1 46.8 57.9C53.6 60.8 56.7 64 56.7 68.4V77.9C56.6 78.8 55.7 79.7 54.7 79.7ZM9.8 75.8H52.8V68.2C52.8 67.1 52.8 64.5 45.3 61.3C38.6 58.6 35 55.8 35 49.1C35 47 35.8 46 36.4 45.2C37 44.5 37.6 43.6 38.1 41C38.4 39.4 39.2 38.7 40 38.2C40.2 38.1 40.5 37.7 40.6 35.7C40.6 35 40.4 34.7 40.4 34.7C39.7 34.3 39.5 33.7 39.6 32.8C39.6 32.8 40.1 29.7 40.3 27.3C40.4 26.1 40.1 23.2 38.1 21.1C36.5 19.4 34.2 18.5 31.2 18.5C28.2 18.5 25.9 19.4 24.3 21.1C22.3 23.3 22 26.1 22.1 27.3C22.3 29.7 22.8 32.8 22.8 32.8C22.9 33.6 22.6 34.4 21.9 34.8C22.1 34.8 21.8 35.1 21.8 35.8C21.9 37.7 22.3 38.1 22.3 38.1C23.3 38.7 24.1 39.3 24.4 41C24.8 43.6 25.5 44.5 26.1 45.2C26.7 46 27.5 47 27.5 49.1C27.5 56 20.6 58.8 14.6 61.4L14.2 61.6C11.9 62.5 9.9 63.5 9.9 65.2V75.8H9.8Z" fill="#224208"/>
</svg>
