<svg xmlns="http://www.w3.org/2000/svg" width="34.948" height="28.259" viewBox="0 0 34.948 28.259">
    <g data-name="Group 2">
        <path d="M17.048 16.715h-.85a.8.8 0 0 1-.8-.8.607.607 0 0 1 .183-.429 5.733 5.733 0 0 0 1.211-1.824.342.342 0 0 0 .2.078c.477 0 1.04-1.055 1.04-1.774s-.067-1.3-.545-1.3a.736.736 0 0 0-.177.025c-.034-1.95-.526-4.382-3.5-4.382-3.106 0-3.469 2.428-3.5 4.376a.682.682 0 0 0-.128-.019c-.478 0-.544.583-.544 1.3s.56 1.774 1.038 1.774a.327.327 0 0 0 .165-.046 5.75 5.75 0 0 0 1.2 1.8.6.6 0 0 1 .183.433.8.8 0 0 1-.8.8h-.858a3.292 3.292 0 0 0-3.293 3.293v.913a1.04 1.04 0 0 0 1.04 1.04h10.988a1.04 1.04 0 0 0 1.038-1.04v-.913a3.292 3.292 0 0 0-3.291-3.305z" data-name="Path 1"/>
        <path d="M26.905 7.681h-9.214a6.775 6.775 0 0 1 .535 2.209 1.338 1.338 0 0 1 .465.554h8.214a.769.769 0 0 0 .77-.77V8.451a.77.77 0 0 0-.77-.77z" data-name="Path 2"/>
        <path d="M26.906 12.716H18.88a2.667 2.667 0 0 1-1.5 1.914c-.022.04-.047.076-.07.116v.733h9.592a.77.77 0 0 0 .77-.771v-1.222a.768.768 0 0 0-.766-.77z" data-name="Path 3"/>
        <path d="M26.905 17.75H20.64a4.206 4.206 0 0 1 .657 2.256v.507h5.609a.769.769 0 0 0 .77-.77V18.52a.769.769 0 0 0-.771-.77z" data-name="Path 4"/>
        <path d="M30.217 0H4.733A4.732 4.732 0 0 0 0 4.733v18.794a4.731 4.731 0 0 0 4.733 4.732h25.484a4.731 4.731 0 0 0 4.731-4.733V4.733A4.731 4.731 0 0 0 30.217 0zm2.5 23.527a2.5 2.5 0 0 1-2.5 2.5H4.733a2.5 2.5 0 0 1-2.5-2.5V4.733a2.5 2.5 0 0 1 2.5-2.5h25.484a2.5 2.5 0 0 1 2.5 2.5v18.794z" data-name="Path 5"/>
    </g>
</svg>
