<svg width="148" height="133" viewBox="0 0 148 133" fill="none" xmlns="http://www.w3.org/2000/svg">
<rect width="148" height="133" fill="#E5E5E5"/>
<rect width="148" height="133" fill="#00AD72"/>
<mask id="path-2-outside-1" maskUnits="userSpaceOnUse" x="65" y="46" width="21" height="40" fill="black">
<rect fill="white" x="65" y="46" width="21" height="40"/>
<path fill-rule="evenodd" clip-rule="evenodd" d="M67 81L83 66L67 51V54.913L79 66.163L67 77.413V81Z"/>
</mask>
<path fill-rule="evenodd" clip-rule="evenodd" d="M67 81L83 66L67 51V54.913L79 66.163L67 77.413V81Z" fill="#FFFCFC"/>
<path d="M83 66L84.3679 67.4591L85.9242 66L84.3679 64.5409L83 66ZM67 81H65V85.6165L68.3679 82.4591L67 81ZM67 51L68.3679 49.5409L65 46.3835V51H67ZM67 54.913H65V55.7795L65.6321 56.3721L67 54.913ZM79 66.163L80.3679 67.6221L81.9242 66.163L80.3679 64.704L79 66.163ZM67 77.413L65.6321 75.954L65 76.5466V77.413H67ZM81.6321 64.5409L65.6321 79.5409L68.3679 82.4591L84.3679 67.4591L81.6321 64.5409ZM65.6321 52.4591L81.6321 67.4591L84.3679 64.5409L68.3679 49.5409L65.6321 52.4591ZM69 54.913V51H65V54.913H69ZM65.6321 56.3721L77.6321 67.6221L80.3679 64.704L68.3679 53.454L65.6321 56.3721ZM77.6321 64.704L65.6321 75.954L68.3679 78.8721L80.3679 67.6221L77.6321 64.704ZM69 81V77.413H65V81H69Z" fill="white" mask="url(#path-2-outside-1)"/>
</svg>
